<svg width="357" height="99" viewBox="0 0 357 99" fill="none" xmlns="http://www.w3.org/2000/svg">
<rect x="0.5" y="0.5" width="330" height="60" fill="white"/>
<rect x="0.5" y="0.5" width="330" height="60" stroke="black"/>
<rect width="303" height="20" transform="translate(27)" fill="black"/>
<path d="M155.758 15.4672V13.9672H158.758V6.46722H155.758V4.96722H164.758V6.46722H161.758V13.9672H164.758V15.4672H155.758ZM166.258 15.4672V7.96722H175.258V9.46722H176.758V15.4672H173.758V9.46722H169.258V15.4672H166.258ZM182.758 15.4672V9.46722H179.758V7.96722H182.758V6.46722H184.258V4.96722H188.758V6.46722H185.758V7.96722H188.758V9.46722H185.758V15.4672H182.758ZM191.758 15.4672V13.9672H190.258V9.46722H191.758V7.96722H199.258V9.46722H200.758V13.9672H199.258V15.4672H191.758ZM193.258 13.9672H197.758V9.46722H193.258V13.9672Z" fill="white"/>
<rect width="27" height="20" fill="white"/>
<rect x="0.5" y="0.5" width="26" height="19" stroke="black"/>
<path fill-rule="evenodd" clip-rule="evenodd" d="M4.5 3.75H22.5V6.25H4.5V3.75ZM4.5 8.75H22.5V11.25H4.5V8.75ZM22.5 13.75H4.5V16.25H22.5V13.75Z" fill="black"/>
<path d="M13 46.625V37H22.625V38.375H15.75V41.125H21.25V42.5H15.75V45.25H22.625V46.625H13ZM24 46.625V45.25H25.375V43.875H26.75V42.5H25.375V41.125H24V39.75H26.75V41.125H28.125V42.5H29.5V41.125H30.875V39.75H33.625V41.125H32.25V42.5H30.875V43.875H32.25V45.25H33.625V46.625H30.875V45.25H29.5V43.875H28.125V45.25H26.75V46.625H24ZM35 48V39.75H43.25V41.125H44.625V43.875H43.25V45.25H37.75V48H35ZM37.75 43.875H41.875V41.125H37.75V43.875ZM47.375 46.625V45.25H46V41.125H47.375V39.75H54.25V41.125H55.625V43.875H48.75V45.25H54.25V46.625H47.375ZM48.75 42.5H52.875V41.125H48.75V42.5ZM61.125 41.125H62.5V42.5H61.125V46.625H58.375V39.75H61.125V41.125ZM66.625 39.75V41.125H62.5V39.75H66.625ZM72.125 38.375V37H74.875V38.375H72.125ZM69.375 46.625V45.25H72.125V41.125H70.75V39.75H74.875V45.25H77.625V46.625H69.375ZM80.375 46.625V45.25H79V41.125H80.375V38.375H81.75V37H85.875V38.375H87.25V41.125H88.625V43.875H81.75V45.25H87.25V46.625H80.375ZM83.125 39.75H84.5V38.375H83.125V39.75ZM81.75 42.5H85.875V41.125H81.75V42.5ZM90 46.625V39.75H98.25V41.125H99.625V46.625H96.875V41.125H92.75V46.625H90ZM102.375 46.625V45.25H101V41.125H102.375V39.75H110.625V41.125H103.75V45.25H110.625V46.625H102.375ZM116.125 38.375V37H118.875V38.375H116.125ZM113.375 46.625V45.25H116.125V41.125H114.75V39.75H118.875V45.25H121.625V46.625H113.375ZM124.375 46.625V45.25H123V43.875H124.375V42.5H129.875V41.125H124.375V39.75H131.25V41.125H132.625V46.625H124.375ZM125.75 45.25H129.875V43.875H125.75V45.25ZM145 48V39.75H153.25V41.125H154.625V43.875H153.25V45.25H147.75V48H145ZM147.75 43.875H151.875V41.125H147.75V43.875ZM160.125 41.125H161.5V42.5H160.125V46.625H157.375V39.75H160.125V41.125ZM165.625 39.75V41.125H161.5V39.75H165.625ZM168.375 46.625V45.25H167V41.125H168.375V39.75H175.25V41.125H176.625V45.25H175.25V46.625H168.375ZM169.75 45.25H173.875V41.125H169.75V45.25ZM179.375 46.625V41.125H178V39.75H179.375V38.375H180.75V37H184.875V38.375H182.125V39.75H187.625V46.625H184.875V41.125H182.125V46.625H179.375ZM189 46.625V45.25H195.875V43.875H190.375V42.5H189V41.125H190.375V39.75H197.25V41.125H191.75V42.5H197.25V43.875H198.625V45.25H197.25V46.625H189ZM200 46.625V45.25H206.875V43.875H201.375V42.5H200V41.125H201.375V39.75H208.25V41.125H202.75V42.5H208.25V43.875H209.625V45.25H208.25V46.625H200ZM215.125 38.375V37H217.875V38.375H215.125ZM212.375 46.625V45.25H215.125V41.125H213.75V39.75H217.875V45.25H220.625V46.625H212.375ZM223.375 46.625V45.25H222V41.125H223.375V39.75H230.25V41.125H231.625V45.25H230.25V46.625H223.375ZM224.75 45.25H228.875V41.125H224.75V45.25ZM233 46.625V39.75H241.25V41.125H242.625V46.625H239.875V41.125H235.75V46.625H233ZM245.375 46.625V45.25H244V43.875H245.375V42.5H250.875V41.125H245.375V39.75H252.25V41.125H253.625V46.625H245.375ZM246.75 45.25H250.875V43.875H246.75V45.25ZM256.375 46.625V45.25H259.125V38.375H257.75V37H261.875V45.25H264.625V46.625H256.375Z" fill="black"/>
<rect x="303.793" y="45.9272" width="6.37087" height="47.7816" transform="rotate(-30 303.793 45.9272)" fill="#F2F2F2"/>
<rect x="309.425" y="68.4233" width="3.18544" height="15.9272" transform="rotate(-30 309.425 68.4233)" fill="#F2F2F2"/>
<rect x="339.885" y="76.585" width="3.18544" height="3.18544" transform="rotate(-30 339.885 76.585)" fill="#F2F2F2"/>
<rect x="315.369" y="72.3479" width="28.6689" height="12.7417" transform="rotate(-30 315.369 72.3479)" fill="#F2F2F2"/>
<rect x="343.383" y="63.5308" width="3.18544" height="6.37087" transform="rotate(-30 343.383 63.5308)" fill="#F2F2F2"/>
<rect x="338.178" y="48.1447" width="3.18544" height="15.9272" transform="rotate(-30 338.178 48.1447)" fill="#F2F2F2"/>
<rect x="331.068" y="48.5715" width="6.37087" height="19.1126" transform="rotate(-30 331.068 48.5715)" fill="#F2F2F2"/>
<rect x="332.66" y="51.3302" width="3.18544" height="3.18544" transform="rotate(-30 332.66 51.3302)" fill="#F2F2F2"/>
<rect x="323.958" y="48.9983" width="3.18544" height="9.55631" transform="rotate(-30 323.958 48.9983)" fill="#F2F2F2"/>
<rect x="329.162" y="64.3843" width="3.18544" height="12.7417" transform="rotate(-30 329.162 64.3843)" fill="#F2F2F2"/>
<rect x="334.68" y="61.1989" width="3.18544" height="12.7417" transform="rotate(-30 334.68 61.1989)" fill="#F2F2F2"/>
<rect x="343.809" y="70.6409" width="3.18544" height="9.55631" transform="rotate(-30 343.809 70.6409)" fill="#F2F2F2"/>
<rect x="344.236" y="77.7509" width="3.18544" height="3.18544" transform="rotate(-30 344.236 77.7509)" fill="#F2F2F2"/>
<rect x="327.684" y="87.3072" width="15.9272" height="3.18544" transform="rotate(-30 327.684 87.3072)" fill="#F2F2F2"/>
<rect x="326.091" y="84.5486" width="3.18544" height="3.18544" transform="rotate(-30 326.091 84.5486)" fill="#F2F2F2"/>
<rect x="321.74" y="83.3826" width="3.18544" height="3.18544" transform="rotate(-30 321.74 83.3826)" fill="#F2F2F2"/>
<rect x="317.389" y="82.2166" width="3.18544" height="3.18544" transform="rotate(-30 317.389 82.2166)" fill="#F2F2F2"/>
<rect x="311.445" y="78.292" width="3.18544" height="6.37087" transform="rotate(-30 311.445 78.292)" fill="#F2F2F2"/>
<rect x="307.093" y="77.1261" width="3.18544" height="3.18544" transform="rotate(-30 307.093 77.1261)" fill="#F2F2F2"/>
<rect x="301.149" y="73.2015" width="3.18544" height="6.37087" transform="rotate(-30 301.149 73.2015)" fill="#F2F2F2"/>
<rect x="302.315" y="68.8501" width="6.37087" height="12.7417" transform="rotate(-30 302.315 68.8501)" fill="#F2F2F2"/>
<rect x="315.682" y="53.7764" width="15.9272" height="35.0398" transform="rotate(-30 315.682 53.7764)" fill="#F2F2F2"/>
<rect x="310.903" y="45.5004" width="3.18544" height="19.1126" transform="rotate(-30 310.903 45.5004)" fill="#F2F2F2"/>
<rect x="302.627" y="50.2786" width="3.18544" height="28.6689" transform="rotate(-30 302.627 50.2786)" fill="#F2F2F2"/>
<rect x="303.793" y="45.9272" width="6.37087" height="3.18544" transform="rotate(-30 303.793 45.9272)" fill="black"/>
<rect x="309.425" y="68.4233" width="3.18544" height="3.18544" transform="rotate(-30 309.425 68.4233)" fill="black"/>
<rect x="339.885" y="76.585" width="3.18544" height="3.18544" transform="rotate(-30 339.885 76.585)" fill="black"/>
<rect x="323.645" y="67.5698" width="3.18544" height="12.7417" transform="rotate(-30 323.645 67.5698)" fill="black"/>
<rect x="343.383" y="63.5308" width="3.18544" height="6.37087" transform="rotate(-30 343.383 63.5308)" fill="black"/>
<rect x="338.178" y="48.1447" width="3.18544" height="15.9272" transform="rotate(-30 338.178 48.1447)" fill="black"/>
<rect x="331.068" y="48.5715" width="6.37087" height="3.18544" transform="rotate(-30 331.068 48.5715)" fill="black"/>
<rect x="332.66" y="51.3302" width="3.18544" height="3.18544" transform="rotate(-30 332.66 51.3302)" fill="black"/>
<rect x="323.958" y="48.9983" width="3.18544" height="9.55631" transform="rotate(-30 323.958 48.9983)" fill="black"/>
<rect x="329.162" y="64.3843" width="3.18544" height="12.7417" transform="rotate(-30 329.162 64.3843)" fill="black"/>
<rect x="334.68" y="61.1989" width="3.18544" height="12.7417" transform="rotate(-30 334.68 61.1989)" fill="black"/>
<rect x="343.809" y="70.6409" width="3.18544" height="9.55631" transform="rotate(-30 343.809 70.6409)" fill="black"/>
<rect x="344.236" y="77.7509" width="3.18544" height="3.18544" transform="rotate(-30 344.236 77.7509)" fill="black"/>
<rect x="327.684" y="87.3072" width="15.9272" height="3.18544" transform="rotate(-30 327.684 87.3072)" fill="black"/>
<rect x="326.091" y="84.5486" width="3.18544" height="3.18544" transform="rotate(-30 326.091 84.5486)" fill="black"/>
<rect x="321.74" y="83.3826" width="3.18544" height="3.18544" transform="rotate(-30 321.74 83.3826)" fill="black"/>
<rect x="317.389" y="82.2166" width="3.18544" height="3.18544" transform="rotate(-30 317.389 82.2166)" fill="black"/>
<rect x="311.445" y="78.292" width="3.18544" height="6.37087" transform="rotate(-30 311.445 78.292)" fill="black"/>
<rect x="307.093" y="77.1261" width="3.18544" height="3.18544" transform="rotate(-30 307.093 77.1261)" fill="black"/>
<rect x="301.149" y="73.2015" width="3.18544" height="6.37087" transform="rotate(-30 301.149 73.2015)" fill="black"/>
<rect x="302.315" y="68.8501" width="6.37087" height="3.18544" transform="rotate(-30 302.315 68.8501)" fill="black"/>
<rect x="315.682" y="53.7764" width="15.9272" height="3.18544" transform="rotate(-30 315.682 53.7764)" fill="black"/>
<rect x="310.903" y="45.5004" width="3.18544" height="19.1126" transform="rotate(-30 310.903 45.5004)" fill="black"/>
<rect x="302.627" y="50.2786" width="3.18544" height="28.6689" transform="rotate(-30 302.627 50.2786)" fill="black"/>
</svg>
